<svg width="256" height="256" viewBox="0 0 256 256" fill="none" xmlns="http://www.w3.org/2000/svg">
<path fill-rule="evenodd" clip-rule="evenodd" d="M85.7857 1.80583C84.7887 0.0789758 82.5806 -0.512688 80.8538 0.484313L49.5863 18.5366C47.8594 19.5336 47.2678 21.7417 48.2648 23.4686L48.8234 24.4362C49.8204 26.1631 52.0286 26.7547 53.7554 25.7577L85.0229 7.70546C86.7497 6.70846 87.3414 4.50033 86.3444 2.77348L85.7857 1.80583ZM62.1398 40.2799C60.4129 41.2769 58.2048 40.6852 57.2078 38.9584L56.7498 38.1651C55.7528 36.4382 56.3445 34.2301 58.0713 33.2331L89.3388 15.1808C91.0656 14.1838 93.2738 14.7755 94.2708 16.5023L94.7288 17.2956C95.7258 19.0225 95.1341 21.2306 93.4073 22.2276L62.1398 40.2799ZM66.4557 47.7552C64.7288 48.7522 64.1371 50.9604 65.1341 52.6872L123.785 154.274C124.602 155.689 124.367 157.476 123.211 158.632L71.3167 210.527C70.6396 211.204 69.7212 211.584 68.7637 211.584H12.6105C10.6165 211.584 9 213.201 9 215.195V251.299C9 253.293 10.6165 254.91 12.6105 254.91H243.68C245.674 254.91 247.29 253.293 247.29 251.299V215.195C247.29 213.201 245.674 211.584 243.68 211.584H208.986C207.696 211.584 206.504 210.896 205.859 209.779L180.699 166.2C179.882 164.785 180.117 162.998 181.273 161.842L244.748 98.3671C246.158 96.9571 246.158 94.6711 244.748 93.2611L219.218 67.7313C217.808 66.3214 215.522 66.3214 214.112 67.7313L185.678 96.1654C183.774 98.069 180.48 97.2968 179.163 94.9491C173.969 85.6949 164.063 79.4415 152.696 79.4415C147.223 79.4415 142.088 80.8914 137.655 83.4281C135.761 84.5121 133.259 84.0323 132.168 82.1422L102.655 31.0245C101.658 29.2976 99.45 28.7059 97.7231 29.7029L66.4557 47.7552ZM153.747 206.169C155.136 208.576 153.399 211.584 150.62 211.584H140.247C137.031 211.584 135.42 207.695 137.694 205.421L144.27 198.845C145.949 197.166 148.763 197.537 149.95 199.592L153.747 206.169Z" fill="white"/>
</svg>
