<svg width="32" height="32" viewBox="0 0 32 32" fill="none" xmlns="http://www.w3.org/2000/svg">
<path d="M11.5634 22.1799L12.0653 23.5373L12.0655 23.5379C12.4285 24.5163 12.9097 25.2927 13.5699 25.8226C14.2414 26.3616 15.0428 26.6015 15.9557 26.6015C16.8555 26.6015 17.6667 26.3302 18.3451 25.7857C19.0163 25.2469 19.5231 24.469 19.8762 23.5061L19.8766 23.505L20.3961 22.0793L20.7035 23.6164C21.0324 25.4257 22.6235 26.6015 24.5326 26.6015C26.6399 26.6015 28.3429 24.9431 28.3429 22.8208C28.3429 22.4893 28.3103 22.0654 28.2133 21.6086L25.968 8.90469C25.7763 7.75692 25.4675 7.05508 24.7789 6.4027C24.1012 5.76074 23.0619 5.34658 22.1074 5.34658C20.67 5.34658 19.2949 6.18131 18.6843 7.43849L18.6843 7.43847L18.681 7.44545L15.9693 13.2108L13.5926 7.90527C12.9343 6.35333 11.4136 5.34658 9.77437 5.34658C8.78184 5.34658 7.909 5.69008 7.24053 6.33146C6.57893 6.96623 6.15329 7.85731 5.97327 8.9028C5.97317 8.90342 5.97306 8.90403 5.97296 8.90465L3.72584 21.5298L3.72231 21.5497L3.72008 21.5697L3.71851 21.5839C3.68994 21.8409 3.65716 22.1358 3.65716 22.4363C3.65716 24.7998 5.24826 26.6015 7.5562 26.6015C8.5472 26.6015 9.43184 26.2593 10.1137 25.6223C10.791 24.9895 11.2356 24.0974 11.4168 23.0435L11.417 23.0423L11.5634 22.1799ZM10.81 22.9392L10.81 22.9392L10.81 22.9392Z" fill="#544776" stroke="#544776" stroke-width="1.23231"/>
</svg>
