<svg width="28" height="31" viewBox="0 0 28 31" fill="none" xmlns="http://www.w3.org/2000/svg">
<path d="M8.99832 0.711621C8.88149 0.509255 8.62272 0.439919 8.42036 0.556755L4.7562 2.67226C4.55383 2.78909 4.4845 3.04786 4.60133 3.25022L4.6668 3.36362C4.78364 3.56599 5.0424 3.63532 5.24477 3.51849L8.90892 1.40298C9.11129 1.28615 9.18063 1.02738 9.06379 0.825017L8.99832 0.711621Z" fill="white"/>
<path d="M6.22731 5.2203C6.02494 5.33713 5.76618 5.2678 5.64934 5.06543L5.59567 4.97247C5.47883 4.7701 5.54817 4.51134 5.75054 4.3945L9.41469 2.279C9.61706 2.16216 9.87582 2.2315 9.99266 2.43386L10.0463 2.52683C10.1632 2.7292 10.0938 2.98796 9.89147 3.1048L6.22731 5.2203Z" fill="white"/>
<path fill-rule="evenodd" clip-rule="evenodd" d="M6.73308 6.09632C6.53071 6.21315 6.46138 6.47192 6.57821 6.67428L13.5372 18.7275C13.6329 18.8934 13.6053 19.1029 13.4699 19.2383L7.53708 25.1711C7.45774 25.2505 7.35012 25.295 7.23791 25.295H0.423101C0.189429 25.295 0 25.4845 0 25.7181V29.9491C0 30.1828 0.189429 30.3722 0.423101 30.3722H8.98965C9.0475 30.3722 9.10297 30.3952 9.14388 30.4361C9.22905 30.5213 9.36715 30.5213 9.45232 30.4361C9.49323 30.3952 9.5487 30.3722 9.60655 30.3722L27.5015 30.3722C27.7352 30.3722 27.9246 30.1828 27.9246 29.9491V25.7181C27.9246 25.4845 27.7352 25.295 27.5015 25.295H23.4358C23.2847 25.295 23.145 25.2144 23.0694 25.0835L20.2067 20.1252C20.111 19.9593 20.1386 19.7499 20.274 19.6145L27.6267 12.2618C27.7919 12.0965 27.7919 11.8286 27.6267 11.6634L24.6349 8.67163C24.4697 8.5064 24.2018 8.5064 24.0366 8.67163L20.7888 11.9194C20.5587 12.1495 20.1569 12.0451 20.0094 11.755C19.4224 10.6005 18.2233 9.80955 16.8394 9.80955C16.198 9.80955 15.5963 9.97947 15.0768 10.2767C14.8548 10.4038 14.5616 10.3475 14.4337 10.1261L10.9752 4.13568C10.8584 3.93331 10.5996 3.86398 10.3972 3.98081L6.73308 6.09632ZM16.9625 24.6604C17.1253 24.9424 16.9218 25.295 16.5961 25.295H15.6149C15.2379 25.295 15.0492 24.8393 15.3157 24.5728L15.9378 23.9507C16.1345 23.754 16.4642 23.7974 16.6033 24.0383L16.9625 24.6604Z" fill="white"/>
</svg>
