<svg width="262" height="227" viewBox="0 0 262 227" fill="none" xmlns="http://www.w3.org/2000/svg">
<path d="M86.3565 176.186L91.4066 189.844L91.409 189.85C95.0612 199.695 99.904 207.508 106.547 212.84C113.304 218.264 121.368 220.678 130.554 220.678C139.608 220.678 147.771 217.948 154.597 212.468C161.351 207.047 166.451 199.219 170.004 189.53L170.008 189.519L175.236 175.173L178.329 190.639C181.637 208.845 197.648 220.678 216.859 220.678C238.064 220.678 255.2 203.99 255.2 182.634C255.2 179.299 254.872 175.033 253.896 170.437L231.302 42.6035C229.374 31.054 226.266 23.9917 219.337 17.4272C212.519 10.9674 202.06 6.79992 192.455 6.79992C177.991 6.79992 164.155 15.1993 158.011 27.8498L157.994 27.8847L157.977 27.9198L130.691 85.9338L106.775 32.5467C100.152 16.9304 84.8496 6.79992 68.3544 6.79992C58.367 6.79992 49.5841 10.2564 42.8576 16.7102C36.2003 23.0977 31.9172 32.0641 30.1058 42.5843C30.1048 42.5906 30.1037 42.5968 30.1026 42.603L7.49106 169.644L7.45547 169.844L7.43305 170.045L7.41725 170.188C7.12977 172.774 6.79992 175.741 6.79992 178.765C6.79992 202.548 22.8104 220.678 46.034 220.678C56.0059 220.678 64.9077 217.234 71.7685 210.824C78.5843 204.457 83.0583 195.48 84.881 184.875L84.8831 184.863L86.3565 176.186Z" fill="white" stroke="white" stroke-width="12.4002"/>
</svg>
