<svg width="31" height="32" viewBox="0 0 31 32" fill="none" xmlns="http://www.w3.org/2000/svg">
<g opacity="0.91">
<path d="M10.1582 0.225729C10.0336 0.00987204 9.75757 -0.064086 9.54171 0.0605391L5.63327 2.31708C5.41742 2.4417 5.34346 2.71772 5.46808 2.93357L5.53792 3.05453C5.66254 3.27038 5.93856 3.34434 6.15442 3.21972L10.0629 0.963182C10.2787 0.838557 10.3527 0.562541 10.228 0.346685L10.1582 0.225729Z" fill="#544776"/>
<path d="M7.20246 5.03499C6.9866 5.15961 6.71059 5.08565 6.58596 4.8698L6.52871 4.77063C6.40409 4.55478 6.47805 4.27876 6.6939 4.15414L10.6023 1.8976C10.8182 1.77297 11.0942 1.84693 11.2188 2.06279L11.2761 2.16195C11.4007 2.37781 11.3268 2.65382 11.1109 2.77845L7.20246 5.03499Z" fill="#544776"/>
<path fill-rule="evenodd" clip-rule="evenodd" d="M7.74195 5.9694C7.52609 6.09403 7.45213 6.37004 7.57676 6.5859L14.9996 19.4427C15.1018 19.6196 15.0724 19.843 14.9279 19.9875L8.59955 26.3158C8.51492 26.4005 8.40012 26.448 8.28043 26.448H1.01131C0.762055 26.448 0.559998 26.6501 0.559998 26.8993V31.4124C0.559998 31.6617 0.762055 31.8637 1.0113 31.8637H10.149C10.2107 31.8637 10.2698 31.8882 10.3135 31.9319C10.4043 32.0227 10.5516 32.0227 10.6425 31.9319C10.6861 31.8882 10.7453 31.8637 10.807 31.8637L29.895 31.8637C30.1442 31.8637 30.3463 31.6617 30.3463 31.4124V26.8993C30.3463 26.6501 30.1442 26.448 29.895 26.448H25.5582C25.397 26.448 25.248 26.362 25.1674 26.2224L22.1139 20.9335C22.0117 20.7566 22.0411 20.5332 22.1856 20.3888L30.0285 12.5459C30.2047 12.3696 30.2047 12.0839 30.0285 11.9076L26.8372 8.71641C26.661 8.54016 26.3752 8.54016 26.199 8.71641L22.7347 12.1807C22.4892 12.4262 22.0607 12.3147 21.9034 12.0053C21.2772 10.7738 19.9981 9.93019 18.522 9.93019C17.8379 9.93019 17.196 10.1114 16.6419 10.4285C16.4051 10.564 16.0924 10.504 15.956 10.2678L12.2669 3.87806C12.1423 3.6622 11.8662 3.58824 11.6504 3.71287L7.74195 5.9694ZM18.6533 25.7711C18.827 26.0719 18.6099 26.448 18.2625 26.448H17.2159C16.8138 26.448 16.6124 25.9619 16.8967 25.6776L17.5603 25.0141C17.7701 24.8042 18.1219 24.8506 18.2702 25.1075L18.6533 25.7711Z" fill="#544776"/>
</g>
</svg>
