<svg width="265" height="69" viewBox="0 0 265 69" fill="none" xmlns="http://www.w3.org/2000/svg">
<g filter="url(#filter0_d_749_4)">
<path d="M37.7484 32.1717L43.5363 19.866C44.4227 18.041 46.4563 16.7896 48.5941 16.7896C50.002 16.7896 51.5663 17.4153 52.557 18.3539C53.5477 19.2924 54.017 20.2831 54.3298 22.1603L58.2927 44.5817C58.4491 45.3117 58.5013 45.9896 58.5013 46.511C58.5013 49.6396 55.9984 52.0903 52.8698 52.0903C49.9498 52.0903 47.6555 50.3174 47.1863 47.7103L45.8827 41.1924L43.6405 47.3453C42.4934 50.4739 40.4598 52.0903 37.7484 52.0903C34.9327 52.0903 33.1077 50.6303 31.9084 47.3974L29.6141 41.1924L28.6755 46.7196C28.102 50.0567 25.912 52.0903 22.9398 52.0903C19.5505 52.0903 17.152 49.4831 17.152 45.8331C17.152 45.3639 17.2041 44.8946 17.2563 44.4253L21.2191 22.1603C21.7927 18.8231 23.8784 16.7896 26.8505 16.7896C29.3013 16.7896 31.5955 18.3017 32.5863 20.6481L37.7484 32.1717Z" fill="white"/>
<path d="M77.0026 47.2931C75.5426 50.6824 73.8219 52.0903 71.0583 52.0903C67.8776 52.0903 65.3747 49.5874 65.3747 46.3546C65.3747 45.3639 65.6355 44.321 66.1047 43.3303L77.0026 20.231C77.9933 18.0931 79.9747 16.7896 82.269 16.7896C84.6155 16.7896 86.5969 18.0931 87.6397 20.2831L98.5897 43.6431C99.059 44.5296 99.2676 45.5203 99.2676 46.4067C99.2676 49.5353 96.6605 52.0903 93.4797 52.0903C90.8205 52.0903 89.2562 50.8389 87.6397 47.2931H77.0026ZM80.4962 39.0024H84.0419L82.269 34.831L80.4962 39.0024Z" fill="white"/>
<path d="M126.984 30.2946V23.8289C126.984 21.5346 127.193 20.4917 128.027 19.2924C129.018 17.7803 130.843 16.7896 132.72 16.7896C134.44 16.7896 136.005 17.5717 137.1 18.8753C138.09 20.1267 138.455 21.326 138.455 23.4639V44.7381C138.455 47.5017 138.195 48.6489 137.204 49.9524C136.161 51.3081 134.493 52.0903 132.72 52.0903C130.895 52.0903 129.383 51.3081 128.183 49.7439L119.11 38.116V45.416C119.11 47.7103 118.798 48.7531 117.807 50.0046C116.712 51.3081 115.095 52.0903 113.375 52.0903C111.602 52.0903 109.881 51.256 108.786 49.8481C107.848 48.5446 107.587 47.5017 107.587 44.9467V22.9424C107.587 19.2403 109.985 16.7896 113.583 16.7896C115.252 16.7896 116.555 17.4674 117.859 19.0839L126.984 30.2946Z" fill="white"/>
<path d="M169.913 39.8889H168.244C165.168 39.8889 163.343 38.3246 163.343 35.7174C163.343 32.9539 165.272 31.4939 168.922 31.546L172.676 31.5981C176.691 31.7024 177.786 32.0153 178.933 33.371C179.976 34.6224 180.445 36.1867 180.393 38.4289L180.341 41.401C180.237 44.2689 180.237 44.3731 179.976 45.2074C179.403 47.0324 177.265 49.1181 174.24 50.6824C171.633 52.0381 168.87 52.716 166.002 52.716C155.834 52.716 147.595 44.5296 147.595 34.4139C147.595 24.3503 155.834 16.216 165.95 16.216C169.339 16.216 172.78 17.2067 175.7 18.9796C178.099 20.4917 179.298 22.2646 179.298 24.3503C179.298 27.4789 176.639 30.086 173.458 30.086C172.937 30.086 172.259 29.9817 171.946 29.8253L169.391 28.4696C168.14 27.896 166.888 27.531 165.741 27.531C162.195 27.531 159.119 30.7117 159.119 34.3617C159.119 38.116 162.195 41.1924 165.95 41.1924C167.41 41.1924 168.244 40.8796 169.913 39.8889Z" fill="white"/>
<path d="M200.903 41.0881H206.169C208.672 41.0881 209.767 41.401 210.967 42.3917C212.166 43.4346 212.844 44.8946 212.844 46.4589C212.844 48.0753 212.114 49.6396 210.967 50.6303C209.819 51.5689 208.829 51.8296 206.222 51.8296H197.305C194.646 51.8296 193.916 51.7253 192.925 51.3603C191.152 50.6303 190.005 49.2224 189.64 47.1889C189.484 46.4589 189.432 46.146 189.432 43.7474V24.8717C189.432 21.9517 189.484 21.5867 189.953 20.4917C190.422 19.1881 191.517 18.1453 192.717 17.6239C194.02 17.1024 194.281 17.0503 197.67 17.0503H204.553C207.838 17.0503 208.151 17.1024 208.933 17.311C211.332 17.9367 212.896 19.9181 212.896 22.3167C212.896 23.9853 212.218 25.5496 211.019 26.5403C209.976 27.4267 208.777 27.7917 206.639 27.7917H200.903V30.1903H205.439C208.255 30.1903 210.08 31.8589 210.08 34.3096C210.08 35.6131 209.507 36.8124 208.568 37.5946C207.682 38.2724 206.847 38.481 205.022 38.481H200.903V41.0881Z" fill="white"/>
<path d="M244.514 38.4289L247.225 42.7567C247.955 43.9039 248.32 45.2596 248.32 46.4589C248.32 49.6396 245.817 52.0903 242.584 52.0903C240.551 52.0903 238.882 51.1517 237.839 49.431L233.094 41.5574V46.3024C233.094 49.5874 230.644 52.0903 227.463 52.0903C225.742 52.0903 224.021 51.3081 222.979 50.0046C222.04 48.8053 221.623 47.2931 221.623 45.1031V23.6724C221.623 21.1696 222.144 19.7617 223.5 18.5624C224.804 17.4153 225.951 17.0503 228.714 17.0503H233.511C236.327 17.0503 237.579 17.2067 239.091 17.5717C244.461 19.0839 248.216 23.9331 248.216 29.5646C248.216 32.9017 247.173 35.4567 244.514 38.4289ZM233.094 27.6874V31.4417H233.564C233.876 31.4417 234.137 31.4417 234.346 31.4417C236.066 31.4939 236.953 30.8681 236.953 29.6167C236.953 28.3653 236.014 27.6874 234.294 27.7396C234.033 27.7396 233.616 27.7396 233.094 27.6874Z" fill="white"/>
<path d="M37.7484 32.1717L43.5363 19.866C44.4227 18.041 46.4563 16.7896 48.5941 16.7896C50.002 16.7896 51.5663 17.4153 52.557 18.3539C53.5477 19.2924 54.017 20.2831 54.3298 22.1603L58.2927 44.5817C58.4491 45.3117 58.5013 45.9896 58.5013 46.511C58.5013 49.6396 55.9984 52.0903 52.8698 52.0903C49.9498 52.0903 47.6555 50.3174 47.1863 47.7103L45.8827 41.1924L43.6405 47.3453C42.4934 50.4739 40.4598 52.0903 37.7484 52.0903C34.9327 52.0903 33.1077 50.6303 31.9084 47.3974L29.6141 41.1924L28.6755 46.7196C28.102 50.0567 25.912 52.0903 22.9398 52.0903C19.5505 52.0903 17.152 49.4831 17.152 45.8331C17.152 45.3639 17.2041 44.8946 17.2563 44.4253L21.2191 22.1603C21.7927 18.8231 23.8784 16.7896 26.8505 16.7896C29.3013 16.7896 31.5955 18.3017 32.5863 20.6481L37.7484 32.1717Z" stroke="white" stroke-width="4.17" stroke-linejoin="round"/>
<path d="M77.0026 47.2931C75.5426 50.6824 73.8219 52.0903 71.0583 52.0903C67.8776 52.0903 65.3747 49.5874 65.3747 46.3546C65.3747 45.3639 65.6355 44.321 66.1047 43.3303L77.0026 20.231C77.9933 18.0931 79.9747 16.7896 82.269 16.7896C84.6155 16.7896 86.5969 18.0931 87.6397 20.2831L98.5897 43.6431C99.059 44.5296 99.2676 45.5203 99.2676 46.4067C99.2676 49.5353 96.6605 52.0903 93.4797 52.0903C90.8205 52.0903 89.2562 50.8389 87.6397 47.2931H77.0026ZM80.4962 39.0024H84.0419L82.269 34.831L80.4962 39.0024Z" stroke="white" stroke-width="4.17" stroke-linejoin="round"/>
<path d="M126.984 30.2946V23.8289C126.984 21.5346 127.193 20.4917 128.027 19.2924C129.018 17.7803 130.843 16.7896 132.72 16.7896C134.44 16.7896 136.005 17.5717 137.1 18.8753C138.09 20.1267 138.455 21.326 138.455 23.4639V44.7381C138.455 47.5017 138.195 48.6489 137.204 49.9524C136.161 51.3081 134.493 52.0903 132.72 52.0903C130.895 52.0903 129.383 51.3081 128.183 49.7439L119.11 38.116V45.416C119.11 47.7103 118.798 48.7531 117.807 50.0046C116.712 51.3081 115.095 52.0903 113.375 52.0903C111.602 52.0903 109.881 51.256 108.786 49.8481C107.848 48.5446 107.587 47.5017 107.587 44.9467V22.9424C107.587 19.2403 109.985 16.7896 113.583 16.7896C115.252 16.7896 116.555 17.4674 117.859 19.0839L126.984 30.2946Z" stroke="white" stroke-width="4.17" stroke-linejoin="round"/>
<path d="M169.913 39.8889H168.244C165.168 39.8889 163.343 38.3246 163.343 35.7174C163.343 32.9539 165.272 31.4939 168.922 31.546L172.676 31.5981C176.691 31.7024 177.786 32.0153 178.933 33.371C179.976 34.6224 180.445 36.1867 180.393 38.4289L180.341 41.401C180.237 44.2689 180.237 44.3731 179.976 45.2074C179.403 47.0324 177.265 49.1181 174.24 50.6824C171.633 52.0381 168.87 52.716 166.002 52.716C155.834 52.716 147.595 44.5296 147.595 34.4139C147.595 24.3503 155.834 16.216 165.95 16.216C169.339 16.216 172.78 17.2067 175.7 18.9796C178.099 20.4917 179.298 22.2646 179.298 24.3503C179.298 27.4789 176.639 30.086 173.458 30.086C172.937 30.086 172.259 29.9817 171.946 29.8253L169.391 28.4696C168.14 27.896 166.888 27.531 165.741 27.531C162.195 27.531 159.119 30.7117 159.119 34.3617C159.119 38.116 162.195 41.1924 165.95 41.1924C167.41 41.1924 168.244 40.8796 169.913 39.8889Z" stroke="white" stroke-width="4.17" stroke-linejoin="round"/>
<path d="M200.903 41.0881H206.169C208.672 41.0881 209.767 41.401 210.967 42.3917C212.166 43.4346 212.844 44.8946 212.844 46.4589C212.844 48.0753 212.114 49.6396 210.967 50.6303C209.819 51.5689 208.829 51.8296 206.222 51.8296H197.305C194.646 51.8296 193.916 51.7253 192.925 51.3603C191.152 50.6303 190.005 49.2224 189.64 47.1889C189.484 46.4589 189.432 46.146 189.432 43.7474V24.8717C189.432 21.9517 189.484 21.5867 189.953 20.4917C190.422 19.1881 191.517 18.1453 192.717 17.6239C194.02 17.1024 194.281 17.0503 197.67 17.0503H204.553C207.838 17.0503 208.151 17.1024 208.933 17.311C211.332 17.9367 212.896 19.9181 212.896 22.3167C212.896 23.9853 212.218 25.5496 211.019 26.5403C209.976 27.4267 208.777 27.7917 206.639 27.7917H200.903V30.1903H205.439C208.255 30.1903 210.08 31.8589 210.08 34.3096C210.08 35.6131 209.507 36.8124 208.568 37.5946C207.682 38.2724 206.847 38.481 205.022 38.481H200.903V41.0881Z" stroke="white" stroke-width="4.17" stroke-linejoin="round"/>
<path d="M244.514 38.4289L247.225 42.7567C247.955 43.9039 248.32 45.2596 248.32 46.4589C248.32 49.6396 245.817 52.0903 242.584 52.0903C240.551 52.0903 238.882 51.1517 237.839 49.431L233.094 41.5574V46.3024C233.094 49.5874 230.644 52.0903 227.463 52.0903C225.742 52.0903 224.021 51.3081 222.979 50.0046C222.04 48.8053 221.623 47.2931 221.623 45.1031V23.6724C221.623 21.1696 222.144 19.7617 223.5 18.5624C224.804 17.4153 225.951 17.0503 228.714 17.0503H233.511C236.327 17.0503 237.579 17.2067 239.091 17.5717C244.461 19.0839 248.216 23.9331 248.216 29.5646C248.216 32.9017 247.173 35.4567 244.514 38.4289ZM233.094 27.6874V31.4417H233.564C233.876 31.4417 234.137 31.4417 234.346 31.4417C236.066 31.4939 236.953 30.8681 236.953 29.6167C236.953 28.3653 236.014 27.6874 234.294 27.7396C234.033 27.7396 233.616 27.7396 233.094 27.6874Z" stroke="white" stroke-width="4.17" stroke-linejoin="round"/>
</g>
<defs>
<filter id="filter0_d_749_4" x="0.944994" y="0.00897789" width="263.582" height="68.914" filterUnits="userSpaceOnUse" color-interpolation-filters="sRGB">
<feFlood flood-opacity="0" result="BackgroundImageFix"/>
<feColorMatrix in="SourceAlpha" type="matrix" values="0 0 0 0 0 0 0 0 0 0 0 0 0 0 0 0 0 0 127 0" result="hardAlpha"/>
<feOffset/>
<feGaussianBlur stdDeviation="7.06101"/>
<feComposite in2="hardAlpha" operator="out"/>
<feColorMatrix type="matrix" values="0 0 0 0 1 0 0 0 0 1 0 0 0 0 1 0 0 0 0.08 0"/>
<feBlend mode="normal" in2="BackgroundImageFix" result="effect1_dropShadow_749_4"/>
<feBlend mode="normal" in="SourceGraphic" in2="effect1_dropShadow_749_4" result="shape"/>
</filter>
</defs>
</svg>
