<svg width="25" height="25" viewBox="0 0 25 25" fill="none" xmlns="http://www.w3.org/2000/svg">
<g clip-path="url(#clip0_85_51)">
<path fill-rule="evenodd" clip-rule="evenodd" d="M5.207 0H19.792C22.669 0 25 2.508 25 5.602V19.398C25 22.492 22.669 25 19.793 25H5.207C2.331 25 0 22.492 0 19.398V5.602C0 2.508 2.331 0 5.207 0Z" fill="#0052FF"/>
<path fill-rule="evenodd" clip-rule="evenodd" d="M12.5001 3.621C17.4041 3.621 21.3791 7.596 21.3791 12.5C21.3791 17.404 17.4041 21.379 12.5001 21.379C7.59609 21.379 3.62109 17.404 3.62109 12.5C3.62109 7.596 7.59609 3.621 12.5001 3.621Z" fill="white"/>
<path fill-rule="evenodd" clip-rule="evenodd" d="M10.3131 9.66199H14.6861C15.0461 9.66199 15.3371 9.97599 15.3371 10.362V14.637C15.3371 15.024 15.0451 15.337 14.6861 15.337H10.3131C9.95311 15.337 9.66211 15.023 9.66211 14.637V10.362C9.66211 9.97599 9.95411 9.66199 10.3131 9.66199Z" fill="#0052FF"/>
</g>
<defs>
<clipPath id="clip0_85_51">
<rect width="25" height="25" fill="white"/>
</clipPath>
</defs>
</svg>
