<svg width="25" height="25" viewBox="0 0 25 25" fill="none" xmlns="http://www.w3.org/2000/svg">
<g clip-path="url(#clip0_85_41)">
<path d="M24.8735 14.3042C25.8505 11.7724 20.992 4.66495 16.3447 1.73656C13.4137 -0.551248 10.3772 -0.246207 9.74345 0.760427C8.39679 2.95672 14.2323 4.84797 18.1402 7.01376C17.2953 7.44082 16.5031 8.20342 16.0542 9.14904C14.602 7.3188 11.407 5.73259 7.65745 7.01376C5.12257 7.86787 3.03658 9.91165 2.21802 12.9621C2.03319 12.8705 1.79554 12.8095 1.5843 12.8095C0.712935 12.8095 0 13.6331 0 14.6398C0 15.6464 0.712935 16.47 1.5843 16.47C1.74273 16.47 2.24443 16.348 2.24443 16.348L10.3772 16.409C7.12935 22.3878 4.54166 23.2419 4.54166 24.2791C4.54166 25.3162 6.99733 25.0417 7.9215 24.6451C12.3575 22.8149 17.1104 17.0496 17.929 15.4024C21.3617 15.9209 24.2398 15.9515 24.8735 14.3042Z" fill="url(#paint0_linear_85_41)"/>
<path fill-rule="evenodd" clip-rule="evenodd" d="M18.1667 7.01376C18.3515 6.92225 18.3251 6.61721 18.2723 6.37317C18.1666 5.8241 16.1863 3.5668 14.3379 2.56017C11.803 1.18748 9.95469 1.24849 9.69064 1.88908C10.1923 3.10924 12.5952 4.23789 15.0773 5.45805C16.1071 5.94612 17.1897 6.46469 18.1667 7.01376Z" fill="url(#paint1_linear_85_41)"/>
<path fill-rule="evenodd" clip-rule="evenodd" d="M14.9452 19.2764C14.4435 19.0629 13.8626 18.8493 13.2025 18.6663C13.889 17.2326 14.0475 15.0668 13.3873 13.7247C12.4632 11.8334 11.3013 10.8268 8.58163 10.8268C7.10295 10.8268 3.08939 11.4063 3.01017 15.2804C3.01017 15.6769 3.01017 16.043 3.03658 16.409H10.3772C9.40019 18.2088 8.47601 19.5509 7.65745 20.5576C8.63444 20.8321 9.42659 21.0761 10.1659 21.3202C10.8525 21.5337 11.5126 21.7167 12.1727 21.9302C13.1761 21.0761 14.1267 20.161 14.9452 19.2764Z" fill="url(#paint2_linear_85_41)"/>
<path d="M2.1124 15.9514C2.40286 18.8798 3.85513 20.039 6.81249 20.3745C9.76986 20.7101 11.4598 20.4966 13.7042 20.7101C15.579 20.8931 17.2689 22.0218 17.8762 21.6252C18.4307 21.2897 18.1138 20.039 17.3745 19.2459C16.3975 18.2087 15.0509 17.5072 12.7008 17.2326C13.1761 15.7379 13.0441 13.6331 12.3047 12.5045C11.2485 10.8573 9.29457 10.1252 6.81249 10.4302C4.2248 10.7963 1.74273 12.291 2.1124 15.9514Z" fill="url(#paint3_linear_85_41)"/>
</g>
<defs>
<linearGradient id="paint0_linear_85_41" x1="7.38884" y1="11.942" x2="25.0254" y2="16.2713" gradientUnits="userSpaceOnUse">
<stop stop-color="#8797FF"/>
<stop offset="1" stop-color="#AAA8FF"/>
</linearGradient>
<linearGradient id="paint1_linear_85_41" x1="33.2019" y1="49.1647" x2="-22.081" y2="18.2147" gradientUnits="userSpaceOnUse">
<stop stop-color="#3B22A0"/>
<stop offset="1" stop-color="#5156D8" stop-opacity="0"/>
</linearGradient>
<linearGradient id="paint2_linear_85_41" x1="25.7218" y1="20.2018" x2="-1.81047" y2="7.45461" gradientUnits="userSpaceOnUse">
<stop stop-color="#3B1E8F"/>
<stop offset="1" stop-color="#6A6FFB" stop-opacity="0"/>
</linearGradient>
<linearGradient id="paint3_linear_85_41" x1="6.55277" y1="13.5864" x2="16.1465" y2="24.1382" gradientUnits="userSpaceOnUse">
<stop stop-color="#8898FF"/>
<stop offset="0.9839" stop-color="#5F47F1"/>
</linearGradient>
<clipPath id="clip0_85_41">
<rect width="25" height="25.0003" fill="white"/>
</clipPath>
</defs>
</svg>
