<svg width="25" height="25" viewBox="0 0 25 25" fill="none" xmlns="http://www.w3.org/2000/svg">
<path fill-rule="evenodd" clip-rule="evenodd" d="M12.5 0C19.4043 0 25 5.5957 25 12.5C25 19.4043 19.4043 25 12.5 25C5.5957 25 0 19.4043 0 12.5C0 5.5957 5.5957 0 12.5 0Z" fill="url(#paint0_radial_85_50)"/>
<path d="M7.94434 9.65332C10.459 7.19727 14.541 7.19727 17.0557 9.65332L17.3584 9.95117C17.4854 10.0732 17.4854 10.2734 17.3584 10.3955L16.3232 11.4063C16.2598 11.4697 16.1572 11.4697 16.0938 11.4063L15.6787 11.001C13.9209 9.28711 11.0791 9.28711 9.32129 11.001L8.87695 11.4355C8.81348 11.499 8.71094 11.499 8.64746 11.4355L7.6123 10.4248C7.48535 10.3027 7.48535 10.1025 7.6123 9.98047L7.94434 9.65332ZM19.1992 11.7432L20.1221 12.6416C20.249 12.7637 20.249 12.9639 20.1221 13.0859L15.9668 17.1436C15.8398 17.2656 15.6348 17.2656 15.5127 17.1436L12.5635 14.2627C12.5342 14.2334 12.4805 14.2334 12.4512 14.2627L9.50195 17.1436C9.375 17.2656 9.16992 17.2656 9.04785 17.1436L4.87793 13.0859C4.75098 12.9639 4.75098 12.7637 4.87793 12.6416L5.80078 11.7432C5.92773 11.6211 6.13281 11.6211 6.25488 11.7432L9.2041 14.624C9.2334 14.6533 9.28711 14.6533 9.31641 14.624L12.2656 11.7432C12.3926 11.6211 12.5977 11.6211 12.7197 11.7432L15.6689 14.624C15.6982 14.6533 15.752 14.6533 15.7813 14.624L18.7305 11.7432C18.8672 11.6211 19.0723 11.6211 19.1992 11.7432Z" fill="white"/>
<defs>
<radialGradient id="paint0_radial_85_50" cx="0" cy="0" r="1" gradientUnits="userSpaceOnUse" gradientTransform="translate(7.7486e-05 12.5004) scale(25)">
<stop stop-color="#5D9DF6"/>
<stop offset="1" stop-color="#006FFF"/>
</radialGradient>
</defs>
</svg>
